# xmcd CD database file
#
# Track frame offsets:
#	150
#	17888
#	37587
#	58038
#	78275
#	99925
#	116587
#	132538
#	151151
#	168544
#	189757
#	212100
#	230796
#	249924
#	268858
#
# Disc length: 3774 seconds
#
# Revision: 10
# Processed by: cddbd v1.5.2PL0 Copyright (c) Steve Scherf et al.
# Submitted via: CDex 1.70beta2
#
DISCID=c00ebc0f
DTITLE=SOUTHERN ALL STARS - 海のYeah!! DISC-1 SEASIDE
DYEAR=1998
DGENRE=J-Pop
TTITLE0=勝手にシンドバッド
TTITLE1=いとしのエリー
TTITLE2=C調言葉に御用心
TTITLE3=栞のテーマ
TTITLE4=いなせなロコモーション
TTITLE5=夏をあきらめて
TTITLE6=チャコの海岸物語
TTITLE7=匂艶 THE NIGHT CLUB
TTITLE8=鎌倉物語
TTITLE9=BYE BYE MY LOVE (U are the one)
TTITLE10=ミス・ブランニュー・デイ (MISS BRAND-NEW DAY)
TTITLE11=海
TTITLE12=みんなのうた
TTITLE13=希望の轍
TTITLE14=忘れられた BIG WAVE
EXTD=YEAR: 1998
EXTT0=
EXTT1=
EXTT2=
EXTT3=
EXTT4=
EXTT5=
EXTT6=
EXTT7=
EXTT8=
EXTT9=
EXTT10=
EXTT11=
EXTT12=
EXTT13=
EXTT14=
PLAYORDER=
